<?xml version="1.0" standalone="no"?>
<!DOCTYPE svg PUBLIC "-//W3C//DTD SVG 20010904//EN"
 "http://www.w3.org/TR/2001/REC-SVG-20010904/DTD/svg10.dtd">
<svg version="1.0" xmlns="http://www.w3.org/2000/svg"
 width="1200.000000pt" height="1200.000000pt" viewBox="0 0 1200.000000 1200.000000"
 preserveAspectRatio="xMidYMid meet">
<metadata>
Created by potrace 1.14, written by Peter Selinger 2001-2017
</metadata>
<g transform="translate(0.000000,1200.000000) scale(0.100000,-0.100000)"
fill="#000000" stroke="none">
<path d="M8534 11913 c-45 -45 -79 -85 -76 -88 3 -3 1 -5 -4 -5 -6 0 -163
-153 -349 -340 -187 -187 -347 -340 -356 -340 -10 0 -19 4 -21 9 -9 26 -462
266 -558 296 -3 1 -16 6 -30 12 -47 19 -202 75 -214 77 -6 1 -15 4 -21 7 -5 3
-39 14 -75 23 -36 10 -72 21 -80 24 -8 3 -19 4 -24 3 -4 -1 -14 4 -22 10 -8 6
-14 9 -14 6 0 -3 -15 -1 -32 4 -18 6 -42 12 -53 13 -18 4 -39 8 -105 21 -47 9
-135 24 -180 29 -25 4 -55 8 -67 10 -53 11 -252 20 -423 20 -195 0 -341 -10
-465 -30 -22 -3 -49 -7 -60 -8 -11 -2 -36 -6 -55 -10 -19 -3 -46 -8 -60 -10
-14 -3 -25 -5 -25 -6 0 -1 -11 -3 -25 -5 -46 -7 -164 -36 -250 -61 -46 -15
-91 -27 -100 -29 -23 -5 -204 -71 -226 -83 -10 -5 -23 -11 -29 -12 -40 -9
-372 -165 -385 -181 -3 -4 -25 -17 -50 -29 -25 -12 -47 -26 -50 -31 -3 -4 -17
-13 -30 -18 -27 -12 -62 -32 -70 -42 -3 -3 -22 -15 -43 -28 -21 -13 -43 -29
-50 -35 -7 -7 -23 -18 -35 -25 -13 -7 -31 -19 -40 -26 -9 -8 -62 -50 -117 -93
-55 -44 -118 -97 -140 -117 -135 -124 -259 -251 -340 -350 -28 -33 -53 -62
-56 -65 -3 -3 -34 -43 -68 -90 -34 -47 -68 -94 -77 -105 -27 -37 -100 -150
-120 -185 -10 -19 -24 -42 -30 -50 -20 -26 -130 -242 -168 -330 -20 -47 -43
-98 -50 -115 -24 -52 -68 -169 -70 -185 -2 -8 -5 -22 -9 -30 -8 -16 -65 -212
-72 -245 -3 -11 -7 -29 -9 -40 -2 -11 -10 -42 -16 -70 -20 -88 -26 -116 -34
-180 -3 -16 -9 -59 -15 -95 -6 -36 -14 -108 -18 -160 -9 -104 -8 -545 1 -625
8 -77 16 -137 20 -165 2 -14 7 -47 11 -75 4 -27 9 -59 12 -70 2 -11 6 -33 9
-50 3 -16 9 -43 14 -60 5 -16 14 -57 21 -90 14 -66 13 -64 21 -85 7 -21 38
-127 43 -148 4 -19 56 -159 76 -207 6 -16 13 -35 14 -40 2 -6 13 -33 26 -60
13 -28 23 -52 24 -55 1 -8 124 -253 135 -270 5 -8 31 -51 57 -95 59 -100 173
-269 184 -273 5 -2 9 -8 9 -13 0 -6 5 -15 10 -22 26 -31 54 -65 78 -96 38 -48
100 -118 152 -173 25 -25 52 -55 61 -65 38 -44 206 -197 299 -272 14 -12 30
-25 37 -31 43 -36 244 -176 323 -225 135 -84 305 -172 440 -230 36 -15 83 -35
105 -45 33 -14 104 -40 125 -45 6 -2 37 -14 65 -25 16 -6 87 -28 118 -36 4 -1
8 -2 10 -4 1 -1 9 -3 17 -5 8 -2 44 -11 80 -20 36 -9 76 -18 90 -21 14 -2 39
-8 55 -12 l30 -8 1 -808 c1 -835 1 -836 -36 -836 -23 0 -257 -148 -302 -189
-9 -9 -30 -27 -47 -40 -141 -108 -328 -349 -422 -546 -50 -105 -115 -289 -125
-353 -3 -20 -8 -46 -11 -57 -7 -22 -8 -24 -19 -110 -15 -113 -6 -467 12 -496
2 -4 6 -24 10 -45 3 -20 10 -48 15 -61 5 -13 8 -27 7 -31 -1 -4 1 -14 4 -22 3
-8 20 -58 38 -110 33 -96 110 -262 136 -291 8 -8 14 -20 14 -25 0 -6 7 -19 15
-29 8 -11 42 -56 74 -100 126 -170 283 -310 496 -442 20 -13 168 -85 215 -105
74 -32 201 -70 279 -83 19 -3 37 -7 40 -9 30 -19 430 -29 531 -14 408 61 757
249 1030 555 57 64 80 92 80 99 0 2 9 15 21 27 11 12 28 36 36 52 9 17 19 32
23 35 16 11 171 325 160 325 -1 0 1 7 4 15 19 53 56 196 56 216 0 13 3 24 8
24 4 0 7 12 8 28 0 15 5 61 9 102 14 130 9 358 -10 445 -3 11 -7 31 -9 45 -13
80 -41 181 -66 245 -4 11 -18 47 -31 80 -36 92 -94 201 -165 305 -88 130 -182
235 -300 335 -32 27 -60 53 -62 57 -2 5 -9 8 -16 8 -7 0 -21 9 -31 20 -10 11
-24 20 -32 20 -7 0 -13 4 -13 8 0 5 -15 16 -32 26 -18 9 -69 37 -113 61 l-80
44 -3 148 c-2 81 -3 153 -3 158 -1 6 0 111 0 235 0 124 0 232 0 240 -1 8 -1
119 0 245 1 127 2 302 2 390 1 226 -3 208 44 217 22 5 54 13 70 18 17 5 41 11
55 14 69 14 249 70 369 115 167 63 414 180 518 247 29 19 56 34 58 34 5 0 197
128 280 187 22 15 47 36 56 46 9 9 21 17 27 17 6 0 12 3 14 8 2 4 32 32 68 62
131 112 251 230 393 390 96 108 181 226 332 460 83 129 215 401 275 565 17 50
36 99 40 110 9 21 22 63 26 80 1 6 9 33 19 61 9 28 18 60 20 70 2 10 4 20 5
22 2 1 4 7 5 12 1 6 3 11 5 13 1 1 3 11 5 22 2 11 5 29 8 40 18 70 28 120 42
205 3 19 8 48 11 65 4 16 8 44 10 62 1 17 5 49 8 70 19 130 26 549 12 698 -11
123 -32 273 -41 305 -3 8 -7 31 -9 50 -3 19 -12 67 -21 105 -9 39 -19 79 -21
90 -7 35 -46 168 -77 260 -83 248 -175 445 -345 737 -13 22 -22 41 -20 44 32
37 233 234 239 234 5 0 9 4 9 9 0 9 205 214 220 219 6 2 10 9 11 15 0 7 27 35
59 62 32 28 59 53 59 57 2 10 72 78 81 78 5 0 10 4 12 10 2 5 42 49 90 98 l88
88 -381 380 c-209 208 -435 434 -502 502 -67 68 -129 127 -137 130 -10 5 -40
-18 -96 -75z m-2496 -1597 c61 -6 210 -30 302 -50 154 -34 389 -130 577 -237
55 -31 214 -143 248 -175 14 -13 29 -24 33 -24 15 0 242 -240 298 -315 32 -44
61 -82 64 -85 4 -3 17 -23 30 -45 13 -22 26 -42 29 -45 21 -18 171 -320 171
-343 0 -7 3 -17 7 -20 19 -20 97 -293 109 -386 3 -25 8 -55 10 -66 17 -87 23
-350 11 -495 -3 -41 -6 -75 -7 -75 -1 0 -3 -12 -5 -26 -10 -74 -19 -120 -40
-202 -9 -34 -18 -69 -20 -77 -2 -8 -13 -42 -24 -75 -12 -33 -23 -67 -25 -75
-3 -8 -12 -32 -20 -52 -9 -21 -17 -41 -18 -45 -2 -14 -103 -207 -132 -253 -96
-154 -181 -263 -295 -378 -112 -113 -141 -139 -236 -209 -38 -29 -74 -56 -80
-61 -21 -17 -165 -102 -174 -102 -5 0 -11 -3 -13 -7 -6 -15 -258 -129 -288
-131 -3 0 -23 -7 -45 -16 -41 -15 -133 -43 -176 -52 -176 -36 -176 -36 -329
-49 -119 -10 -362 -4 -430 11 -14 3 -41 7 -60 9 -19 2 -57 9 -85 15 -27 7 -57
13 -65 15 -120 17 -393 126 -558 222 -41 24 -76 43 -78 43 -3 0 -10 5 -17 10
-7 6 -59 45 -117 87 -58 42 -157 129 -221 193 -112 111 -229 249 -229 269 0 5
-4 11 -8 13 -16 6 -106 155 -164 270 -32 64 -58 119 -58 122 0 3 -5 17 -12 33
-6 15 -12 30 -13 33 -1 3 -4 12 -8 20 -50 129 -100 338 -111 472 -2 26 -6 51
-9 55 -8 12 -2 446 5 459 4 5 9 28 12 50 3 21 8 50 11 64 3 14 8 40 11 58 4
33 26 113 58 219 41 133 136 332 218 459 24 38 45 72 46 77 1 4 10 15 20 25 9
10 24 29 32 42 8 12 20 28 25 34 6 6 31 36 56 66 81 96 203 214 289 280 25 19
47 37 50 40 12 14 179 120 188 120 6 0 12 4 14 8 4 11 228 124 228 115 0 -3 6
-1 13 5 12 10 165 67 206 78 9 2 57 14 107 28 50 13 113 26 140 30 27 3 60 8
74 11 14 3 56 7 95 10 38 4 70 7 71 8 5 4 244 -1 312 -7z m-18 -8116 c198 -70
356 -260 373 -451 3 -26 8 -52 11 -58 4 -6 4 -11 -1 -11 -4 0 -8 -21 -7 -48 0
-26 -8 -74 -18 -107 -11 -33 -20 -65 -22 -71 -8 -42 -94 -153 -166 -216 -31
-27 -117 -78 -133 -78 -9 0 -18 -4 -21 -9 -3 -5 -23 -12 -43 -16 -21 -4 -49
-9 -63 -12 -38 -9 -163 -10 -180 -2 -8 4 -29 9 -46 12 -43 7 -141 53 -189 90
-166 127 -253 331 -223 522 10 66 48 185 59 185 5 0 9 6 9 13 0 26 101 138
170 188 49 36 138 74 195 85 16 3 31 7 33 9 2 2 47 2 101 0 67 -2 115 -9 161
-25z"/>
</g>
</svg>
